# xmcd CD database file
#
# Track frame offsets:
#	150
#	16055
#	40370
#	65893
#	82985
#
# Disc length: 1309 seconds
#
# Revision: 5
# Processed by: cddbd v1.5.2PL0 Copyright (c) Steve Scherf et al.
# Submitted via: CDex 1.51
#
DISCID=38051b05
DTITLE=Rednex - Old Pop In An Oak
DYEAR=1994
DGENRE=Eurodance
TTITLE0=Old Pop In An Oak (Original Radio Edit)
TTITLE1=Old Pop In An Oak (Doug's Klub Mix)
TTITLE2=Old Pop In An Oak (Original Extended Mix)
TTITLE3=Old Pop In An Oak (Doug's Phantom Dub Mix)
TTITLE4=Old Pop In An Oak (Original Instrumental)
EXTD=YEAR: 1994
EXTT0=
EXTT1=
EXTT2=
EXTT3=
EXTT4=
PLAYORDER=
